<?xml version="1.0" encoding="UTF-8" standalone="no"?>
<svg width="625px" height="625px" viewBox="0 0 625 625" version="1.1" xmlns="http://www.w3.org/2000/svg" xmlns:xlink="http://www.w3.org/1999/xlink" style="background: #FFFFFF;">
    <!-- Generator: Sketch 42 (36781) - http://www.bohemiancoding.com/sketch -->
    <title>Desktop HD</title>
    <desc>Created with Sketch.</desc>
    <defs></defs>
    <g id="Page-1" stroke="none" stroke-width="1" fill="none" fill-rule="evenodd">
        <g id="Desktop-HD" transform="translate(-95.000000, -17.000000)">
            <polygon id="Empty-O" stroke="#FF9E80" stroke-width="2" fill="#FFFFFF" points="456.375 168.492188 467.132812 150 477.398438 150 461.929688 175.382813 477.75 201.1875 467.378906 201.1875 456.375 182.414063 445.335938 201.1875 435 201.1875 450.855469 175.382813 435.351562 150 445.617188 150"></polygon>
            <polygon id="Solid-X" fill="#FF9E80" points="400.375 572.492188 411.132812 554 421.398438 554 405.929688 579.382812 421.75 605.1875 411.378906 605.1875 400.375 586.414062 389.335938 605.1875 379 605.1875 394.855469 579.382812 379.351562 554 389.617188 554"></polygon>
            <path d="M704.597594,563.367308 C704.597594,568.516277 703.707365,573.033588 701.92688,576.919375 C700.146395,580.805162 697.602025,583.788632 694.293692,585.869874 C690.985359,587.951116 687.177826,588.991722 682.870978,588.991722 C678.612252,588.991722 674.816749,587.951116 671.484355,585.869874 C668.151962,583.788632 665.577516,580.823207 663.76094,576.973511 C661.944365,573.123815 661.024061,568.6847 661,563.656034 L661,560.696595 C661,555.571687 661.908274,551.048361 663.72485,547.126483 C665.541425,543.204605 668.103841,540.20309 671.412174,538.121848 C674.720506,536.040605 678.51601,535 682.798797,535 C687.081584,535 690.877087,536.028575 694.18542,538.085757 C697.493753,540.142938 700.050153,543.102348 701.854699,546.964075 C703.659244,550.825801 704.573533,555.319052 704.597594,560.44396 L704.597594,563.367308 Z M695.466641,560.624413 C695.466641,554.801748 694.365885,550.338573 692.164339,547.234755 C689.962794,544.130937 686.840978,542.579052 682.798797,542.579052 C678.852858,542.579052 675.767132,544.124922 673.541526,547.21671 C671.315921,550.308497 670.179074,554.681446 670.130953,560.335688 L670.130953,563.367308 C670.130953,569.141853 671.255769,573.605028 673.505436,576.756967 C675.755102,579.908906 678.876918,581.484851 682.870978,581.484851 C686.913159,581.484851 690.022946,579.944996 692.20043,576.865239 C694.377915,573.785482 695.466641,569.286217 695.466641,563.367308 L695.466641,560.624413 Z" id="Empty-O" stroke="#FF9E80" stroke-width="2" fill="#FFFFFF"></path>
            <path d="M339.597594,202.367308 C339.597594,207.516277 338.707365,212.033588 336.92688,215.919375 C335.146395,219.805162 332.602025,222.788632 329.293692,224.869874 C325.985359,226.951116 322.177826,227.991722 317.870978,227.991722 C313.612252,227.991722 309.816749,226.951116 306.484355,224.869874 C303.151962,222.788632 300.577516,219.823207 298.76094,215.973511 C296.944365,212.123815 296.024061,207.6847 296,202.656034 L296,199.696595 C296,194.571687 296.908274,190.048361 298.72485,186.126483 C300.541425,182.204605 303.103841,179.20309 306.412174,177.121848 C309.720506,175.040605 313.51601,174 317.798797,174 C322.081584,174 325.877087,175.028575 329.18542,177.085757 C332.493753,179.142938 335.050153,182.102348 336.854699,185.964075 C338.659244,189.825801 339.573533,194.319052 339.597594,199.44396 L339.597594,202.367308 Z M330.466641,199.624413 C330.466641,193.801748 329.365885,189.338573 327.164339,186.234755 C324.962794,183.130937 321.840978,181.579052 317.798797,181.579052 C313.852858,181.579052 310.767132,183.124922 308.541526,186.21671 C306.315921,189.308497 305.179074,193.681446 305.130953,199.335688 L305.130953,202.367308 C305.130953,208.141853 306.255769,212.605028 308.505436,215.756967 C310.755102,218.908906 313.876918,220.484851 317.870978,220.484851 C321.913159,220.484851 325.022946,218.944996 327.20043,215.865239 C329.377915,212.785482 330.466641,208.286217 330.466641,202.367308 L330.466641,199.624413 Z" id="Solid-O" fill="#FF9E80"></path>
            <polygon id="Empty-O" stroke="#FF9E80" stroke-width="2" fill="#FFFFFF" transform="translate(497.601562, 484.494040) rotate(344.000000) translate(-497.601562, -484.494040) " points="497.601562 477.392478 508.359375 458.90029 518.625 458.90029 503.15625 484.283103 518.976562 510.08779 508.605469 510.08779 497.601562 491.314353 486.5625 510.08779 476.226562 510.08779 492.082031 484.283103 476.578125 458.90029 486.84375 458.90029"></polygon>
            <polygon id="Solid-X" fill="#FF9E80" transform="translate(147.601562, 78.494040) rotate(344.000000) translate(-147.601562, -78.494040) " points="147.601562 71.3924775 158.359375 52.90029 168.625 52.90029 153.15625 78.2831025 168.976562 104.08779 158.605469 104.08779 147.601562 85.3143525 136.5625 104.08779 126.226562 104.08779 142.082031 78.2831025 126.578125 52.90029 136.84375 52.90029"></polygon>
            <path d="M223.194213,156.330097 C223.194213,161.479066 222.303984,165.996377 220.523499,169.882164 C218.743015,173.767951 216.198644,176.751421 212.890311,178.832663 C209.581979,180.913905 205.774445,181.954511 201.467598,181.954511 C197.208871,181.954511 193.413368,180.913905 190.080974,178.832663 C186.748581,176.751421 184.174135,173.785996 182.35756,169.9363 C180.540984,166.086603 179.62068,161.647489 179.596619,156.618823 L179.596619,153.659384 C179.596619,148.534475 180.504893,144.01115 182.321469,140.089272 C184.138044,136.167394 186.70046,133.165879 190.008793,131.084636 C193.317126,129.003394 197.112629,127.962789 201.395416,127.962789 C205.678203,127.962789 209.473706,128.991364 212.782039,131.048546 C216.090372,133.105727 218.646773,136.065137 220.451318,139.926864 C222.255863,143.78859 223.170152,148.28184 223.194213,153.406749 L223.194213,156.330097 Z M214.06326,153.587202 C214.06326,147.764537 212.962504,143.301362 210.760959,140.197544 C208.559414,137.093726 205.437597,135.541841 201.395416,135.541841 C197.449477,135.541841 194.363751,137.087711 192.138146,140.179499 C189.91254,143.271286 188.775693,147.644235 188.727572,153.298477 L188.727572,156.330097 C188.727572,162.104642 189.852389,166.567817 192.102055,169.719756 C194.351721,172.871694 197.473538,174.44764 201.467598,174.44764 C205.509779,174.44764 208.619565,172.907785 210.797049,169.828028 C212.974534,166.748271 214.06326,162.249005 214.06326,156.330097 L214.06326,153.587202 Z" id="Empty-O" stroke="#FF9E80" stroke-width="2" fill="#FFFFFF" transform="translate(201.395416, 154.958650) rotate(344.000000) translate(-201.395416, -154.958650) "></path>
            <path d="M563.194213,208.923847 C563.194213,214.072816 562.303984,218.590127 560.523499,222.475914 C558.743015,226.361701 556.198644,229.345171 552.890311,231.426413 C549.581979,233.507655 545.774445,234.548261 541.467598,234.548261 C537.208871,234.548261 533.413368,233.507655 530.080974,231.426413 C526.748581,229.345171 524.174135,226.379746 522.35756,222.53005 C520.540984,218.680353 519.62068,214.241239 519.596619,209.212573 L519.596619,206.253134 C519.596619,201.128225 520.504893,196.6049 522.321469,192.683022 C524.138044,188.761144 526.70046,185.759629 530.008793,183.678386 C533.317126,181.597144 537.112629,180.556539 541.395416,180.556539 C545.678203,180.556539 549.473706,181.585114 552.782039,183.642296 C556.090372,185.699477 558.646773,188.658887 560.451318,192.520614 C562.255863,196.38234 563.170152,200.87559 563.194213,206.000499 L563.194213,208.923847 Z M554.06326,206.180952 C554.06326,200.358287 552.962504,195.895112 550.760959,192.791294 C548.559414,189.687476 545.437597,188.135591 541.395416,188.135591 C537.449477,188.135591 534.363751,189.681461 532.138146,192.773249 C529.91254,195.865036 528.775693,200.237985 528.727572,205.892227 L528.727572,208.923847 C528.727572,214.698392 529.852389,219.161567 532.102055,222.313506 C534.351721,225.465444 537.473538,227.04139 541.467598,227.04139 C545.509779,227.04139 548.619565,225.501535 550.797049,222.421778 C552.974534,219.342021 554.06326,214.842755 554.06326,208.923847 L554.06326,206.180952 Z" id="Solid-O" fill="#FF9E80" transform="translate(541.395416, 207.552400) rotate(344.000000) translate(-541.395416, -207.552400) "></path>
            <polygon id="Empty-O" stroke="#FF9E80" stroke-width="2" fill="#FFFFFF" transform="translate(649.115583, 172.622435) rotate(351.000000) translate(-649.115583, -172.622435) " points="649.115583 165.520873 659.873395 147.028685 670.13902 147.028685 654.67027 172.411498 670.490583 198.216185 660.119489 198.216185 649.115583 179.442748 638.07652 198.216185 627.740583 198.216185 643.596052 172.411498 628.092145 147.028685 638.35777 147.028685"></polygon>
            <polygon id="Solid-X" fill="#FF9E80" transform="translate(241.707643, 288.622435) rotate(351.000000) translate(-241.707643, -288.622435) " points="241.707643 281.520873 252.465455 263.028685 262.73108 263.028685 247.26233 288.411498 263.082643 314.216185 252.711549 314.216185 241.707643 295.442748 230.66858 314.216185 220.332643 314.216185 236.188112 288.411498 220.684205 263.028685 230.94983 263.028685"></polygon>
            <path d="M560.552297,80.4450277 C560.552297,85.5939966 559.662068,90.1113069 557.881584,93.9970942 C556.101099,97.8828815 553.556729,100.866351 550.248396,102.947594 C546.940063,105.028836 543.13253,106.069441 538.825682,106.069441 C534.566955,106.069441 530.771452,105.028836 527.439059,102.947594 C524.106665,100.866351 521.53222,97.9009267 519.715644,94.0512303 C517.899069,90.2015339 516.978764,85.7624194 516.954704,80.7337535 L516.954704,77.7743142 C516.954704,72.6494058 517.862978,68.1260804 519.679553,64.2042023 C521.496129,60.2823241 524.058545,57.2808089 527.366877,55.1995668 C530.67521,53.1183247 534.470713,52.0777193 538.7535,52.0777193 C543.036288,52.0777193 546.831791,53.1062946 550.140124,55.1634761 C553.448456,57.2206576 556.004857,60.1800673 557.809402,64.041794 C559.613948,67.9035207 560.528237,72.3967708 560.552297,77.5216791 L560.552297,80.4450277 Z M551.421344,77.7021327 C551.421344,71.8794669 550.320588,67.4162921 548.119043,64.3124744 C545.917498,61.2086567 542.795682,59.6567711 538.7535,59.6567711 C534.807562,59.6567711 531.721836,61.2026417 529.49623,64.2944291 C527.270624,67.3862165 526.133778,71.7591654 526.085657,77.4134069 L526.085657,80.4450277 C526.085657,86.2195723 527.210473,90.6827471 529.460139,93.834686 C531.709806,96.9866249 534.831622,98.5625707 538.825682,98.5625707 C542.867863,98.5625707 545.977649,97.0227152 548.155134,93.9429581 C550.332618,90.863201 551.421344,86.3639359 551.421344,80.4450277 L551.421344,77.7021327 Z" id="Empty-O" stroke="#FF9E80" stroke-width="2" fill="#FFFFFF" transform="translate(538.753500, 79.073580) rotate(351.000000) translate(-538.753500, -79.073580) "></path>
            <path d="M452.228939,391.445028 C452.228939,396.593997 451.33871,401.111307 449.558226,404.997094 C447.777741,408.882882 445.233371,411.866351 441.925038,413.947594 C438.616705,416.028836 434.809172,417.069441 430.502324,417.069441 C426.243597,417.069441 422.448094,416.028836 419.115701,413.947594 C415.783307,411.866351 413.208861,408.900927 411.392286,405.05123 C409.57571,401.201534 408.655406,396.762419 408.631346,391.733753 L408.631346,388.774314 C408.631346,383.649406 409.53962,379.12608 411.356195,375.204202 C413.172771,371.282324 415.735186,368.280809 419.043519,366.199567 C422.351852,364.118325 426.147355,363.077719 430.430142,363.077719 C434.71293,363.077719 438.508433,364.106295 441.816766,366.163476 C445.125098,368.220658 447.681499,371.180067 449.486044,375.041794 C451.290589,378.903521 452.204879,383.396771 452.228939,388.521679 L452.228939,391.445028 Z M443.097986,388.702133 C443.097986,382.879467 441.99723,378.416292 439.795685,375.312474 C437.59414,372.208657 434.472324,370.656771 430.430142,370.656771 C426.484204,370.656771 423.398478,372.202642 421.172872,375.294429 C418.947266,378.386216 417.81042,382.759165 417.762299,388.413407 L417.762299,391.445028 C417.762299,397.219572 418.887115,401.682747 421.136781,404.834686 C423.386448,407.986625 426.508264,409.562571 430.502324,409.562571 C434.544505,409.562571 437.654291,408.022715 439.831776,404.942958 C442.00926,401.863201 443.097986,397.363936 443.097986,391.445028 L443.097986,388.702133 Z" id="Solid-O" fill="#FF9E80" transform="translate(430.430142, 390.073580) rotate(351.000000) translate(-430.430142, -390.073580) "></path>
            <polygon id="Empty-O" stroke="#FF9E80" stroke-width="2" fill="#FFFFFF" transform="translate(261.431284, 547.373693) rotate(386.000000) translate(-261.431284, -547.373693) " points="261.431284 540.272131 272.189097 521.779943 282.454722 521.779943 266.985972 547.162756 282.806284 572.967443 272.435191 572.967443 261.431284 554.194006 250.392222 572.967443 240.056284 572.967443 255.911753 547.162756 240.407847 521.779943 250.673472 521.779943"></polygon>
            <polygon id="Solid-X" fill="#FF9E80" transform="translate(674.431284, 76.373693) rotate(386.000000) translate(-674.431284, -76.373693) " points="674.431284 69.2721309 685.189097 50.7799434 695.454722 50.7799434 679.985972 76.1627559 695.806284 101.967443 685.435191 101.967443 674.431284 83.1940059 663.392222 101.967443 653.056284 101.967443 668.911753 76.1627559 653.407847 50.7799434 663.673472 50.7799434"></polygon>
            <path d="M283.225632,425.518701 C283.225632,430.66767 282.335403,435.18498 280.554919,439.070767 C278.774434,442.956555 276.230063,445.940025 272.921731,448.021267 C269.613398,450.102509 265.805865,451.143114 261.499017,451.143114 C257.24029,451.143114 253.444787,450.102509 250.112394,448.021267 C246.78,445.940025 244.205554,442.9746 242.388979,439.124904 C240.572403,435.275207 239.652099,430.836093 239.628038,425.807427 L239.628038,422.847987 C239.628038,417.723079 240.536313,413.199754 242.352888,409.277875 C244.169464,405.355997 246.731879,402.354482 250.040212,400.27324 C253.348545,398.191998 257.144048,397.151392 261.426835,397.151392 C265.709623,397.151392 269.505126,398.179968 272.813458,400.237149 C276.121791,402.294331 278.678192,405.253741 280.482737,409.115467 C282.287282,412.977194 283.201571,417.470444 283.225632,422.595352 L283.225632,425.518701 Z M274.094679,422.775806 C274.094679,416.95314 272.993923,412.489965 270.792378,409.386148 C268.590833,406.28233 265.469016,404.730444 261.426835,404.730444 C257.480896,404.730444 254.395171,406.276315 252.169565,409.368102 C249.943959,412.45989 248.807113,416.832839 248.758991,422.48708 L248.758991,425.518701 C248.758991,431.293245 249.883808,435.75642 252.133474,438.908359 C254.38314,442.060298 257.504957,443.636244 261.499017,443.636244 C265.541198,443.636244 268.650984,442.096388 270.828469,439.016631 C273.005953,435.936874 274.094679,431.437609 274.094679,425.518701 L274.094679,422.775806 Z" id="Empty-O" stroke="#FF9E80" stroke-width="2" fill="#FFFFFF" transform="translate(261.426835, 424.147253) rotate(386.000000) translate(-261.426835, -424.147253) "></path>
            <path d="M361.225632,482.19113 C361.225632,487.340099 360.335403,491.857409 358.554919,495.743197 C356.774434,499.628984 354.230063,502.612454 350.921731,504.693696 C347.613398,506.774938 343.805865,507.815544 339.499017,507.815544 C335.24029,507.815544 331.444787,506.774938 328.112394,504.693696 C324.78,502.612454 322.205554,499.647029 320.388979,495.797333 C318.572403,491.947636 317.652099,487.508522 317.628038,482.479856 L317.628038,479.520417 C317.628038,474.395508 318.536313,469.872183 320.352888,465.950305 C322.169464,462.028426 324.731879,459.026911 328.040212,456.945669 C331.348545,454.864427 335.144048,453.823822 339.426835,453.823822 C343.709623,453.823822 347.505126,454.852397 350.813458,456.909579 C354.121791,458.96676 356.678192,461.92617 358.482737,465.787896 C360.287282,469.649623 361.201571,474.142873 361.225632,479.267782 L361.225632,482.19113 Z M352.094679,479.448235 C352.094679,473.625569 350.993923,469.162395 348.792378,466.058577 C346.590833,462.954759 343.469016,461.402874 339.426835,461.402874 C335.480896,461.402874 332.395171,462.948744 330.169565,466.040531 C327.943959,469.132319 326.807113,473.505268 326.758991,479.159509 L326.758991,482.19113 C326.758991,487.965675 327.883808,492.428849 330.133474,495.580788 C332.38314,498.732727 335.504957,500.308673 339.499017,500.308673 C343.541198,500.308673 346.650984,498.768818 348.828469,495.689061 C351.005953,492.609303 352.094679,488.110038 352.094679,482.19113 L352.094679,479.448235 Z" id="Solid-O" fill="#FF9E80" transform="translate(339.426835, 480.819683) rotate(386.000000) translate(-339.426835, -480.819683) "></path>
            <polygon id="Empty-O" stroke="#FF9E80" stroke-width="2" fill="#FFFFFF" transform="translate(672.000000, 383.746113) rotate(373.000000) translate(-672.000000, -383.746113) " points="672 376.64455 682.757813 358.152363 693.023438 358.152363 677.554688 383.535175 693.375 409.339863 683.003906 409.339863 672 390.566425 660.960938 409.339863 650.625 409.339863 666.480469 383.535175 650.976563 358.152363 661.242188 358.152363"></polygon>
            <polygon id="Solid-X" fill="#FF9E80" transform="translate(307.584501, 61.253887) rotate(373.000000) translate(-307.584501, -61.253887) " points="307.584501 54.1523249 318.342314 35.6601374 328.607939 35.6601374 313.139189 61.0429499 328.959501 86.8476374 318.588407 86.8476374 307.584501 68.0741999 296.545439 86.8476374 286.209501 86.8476374 302.06497 61.0429499 286.561064 35.6601374 296.826689 35.6601374"></polygon>
            <path d="M547.111639,349.579069 C547.111639,354.728037 546.22141,359.245348 544.440926,363.131135 C542.660441,367.016922 540.116071,370.000392 536.807738,372.081634 C533.499405,374.162877 529.691872,375.203482 525.385024,375.203482 C521.126297,375.203482 517.330794,374.162877 513.998401,372.081634 C510.666007,370.000392 508.091561,367.034968 506.274986,363.185271 C504.45841,359.335575 503.538106,354.89646 503.514046,349.867794 L503.514046,346.908355 C503.514046,341.783447 504.42232,337.260121 506.238895,333.338243 C508.055471,329.416365 510.617886,326.41485 513.926219,324.333608 C517.234552,322.252366 521.030055,321.21176 525.312842,321.21176 C529.59563,321.21176 533.391133,322.240335 536.699466,324.297517 C540.007798,326.354698 542.564199,329.314108 544.368744,333.175835 C546.173289,337.037562 547.087579,341.530812 547.111639,346.65572 L547.111639,349.579069 Z M537.980686,346.836174 C537.980686,341.013508 536.87993,336.550333 534.678385,333.446515 C532.47684,330.342698 529.355024,328.790812 525.312842,328.790812 C521.366904,328.790812 518.281178,330.336683 516.055572,333.42847 C513.829966,336.520257 512.69312,340.893206 512.644999,346.547448 L512.644999,349.579069 C512.644999,355.353613 513.769815,359.816788 516.019481,362.968727 C518.269148,366.120666 521.390964,367.696612 525.385024,367.696612 C529.427205,367.696612 532.536991,366.156756 534.714476,363.076999 C536.89196,359.997242 537.980686,355.497977 537.980686,349.579069 L537.980686,346.836174 Z" id="Empty-O" stroke="#FF9E80" stroke-width="2" fill="#FFFFFF" transform="translate(525.312842, 348.207621) rotate(373.000000) translate(-525.312842, -348.207621) "></path>
            <path d="M167.111639,247.579069 C167.111639,252.728037 166.22141,257.245348 164.440926,261.131135 C162.660441,265.016922 160.116071,268.000392 156.807738,270.081634 C153.499405,272.162877 149.691872,273.203482 145.385024,273.203482 C141.126297,273.203482 137.330794,272.162877 133.998401,270.081634 C130.666007,268.000392 128.091561,265.034968 126.274986,261.185271 C124.45841,257.335575 123.538106,252.89646 123.514046,247.867794 L123.514046,244.908355 C123.514046,239.783447 124.42232,235.260121 126.238895,231.338243 C128.055471,227.416365 130.617886,224.41485 133.926219,222.333608 C137.234552,220.252366 141.030055,219.21176 145.312842,219.21176 C149.59563,219.21176 153.391133,220.240335 156.699466,222.297517 C160.007798,224.354698 162.564199,227.314108 164.368744,231.175835 C166.173289,235.037562 167.087579,239.530812 167.111639,244.65572 L167.111639,247.579069 Z M157.980686,244.836174 C157.980686,239.013508 156.87993,234.550333 154.678385,231.446515 C152.47684,228.342698 149.355024,226.790812 145.312842,226.790812 C141.366904,226.790812 138.281178,228.336683 136.055572,231.42847 C133.829966,234.520257 132.69312,238.893206 132.644999,244.547448 L132.644999,247.579069 C132.644999,253.353613 133.769815,257.816788 136.019481,260.968727 C138.269148,264.120666 141.390964,265.696612 145.385024,265.696612 C149.427205,265.696612 152.536991,264.156756 154.714476,261.076999 C156.89196,257.997242 157.980686,253.497977 157.980686,247.579069 L157.980686,244.836174 Z" id="Solid-O" fill="#FF9E80" transform="translate(145.312842, 246.207621) rotate(373.000000) translate(-145.312842, -246.207621) "></path>
            <polygon id="Empty-O" stroke="#FF9E80" stroke-width="2" fill="#FFFFFF" transform="translate(329.211922, 339.211922) rotate(405.000000) translate(-329.211922, -339.211922) " points="329.211922 332.110359 339.969734 313.618172 350.235359 313.618172 334.766609 339.000984 350.586922 364.805672 340.215828 364.805672 329.211922 346.032234 318.172859 364.805672 307.836922 364.805672 323.69239 339.000984 308.188484 313.618172 318.454109 313.618172"></polygon>
            <polygon id="Solid-X" fill="#FF9E80" transform="translate(611.211922, 468.211922) rotate(405.000000) translate(-611.211922, -468.211922) " points="611.211922 461.110359 621.969734 442.618172 632.235359 442.618172 616.766609 468.000984 632.586922 493.805672 622.215828 493.805672 611.211922 475.032234 600.172859 493.805672 589.836922 493.805672 605.69239 468.000984 590.188484 442.618172 600.454109 442.618172"></polygon>
            <path d="M396.30183,126.874481 C396.30183,132.02345 395.411601,136.54076 393.631117,140.426547 C391.850632,144.312335 389.306262,147.295805 385.997929,149.377047 C382.689596,151.458289 378.882063,152.498894 374.575215,152.498894 C370.316488,152.498894 366.520985,151.458289 363.188592,149.377047 C359.856198,147.295805 357.281752,144.33038 355.465177,140.480683 C353.648601,136.630987 352.728297,132.191873 352.704237,127.163207 L352.704237,124.203767 C352.704237,119.078859 353.612511,114.555534 355.429086,110.633655 C357.245662,106.711777 359.808077,103.710262 363.11641,101.62902 C366.424743,99.5477779 370.220246,98.5071724 374.503033,98.5071724 C378.785821,98.5071724 382.581324,99.5357478 385.889657,101.592929 C389.197989,103.650111 391.75439,106.60952 393.558935,110.471247 C395.36348,114.332974 396.27777,118.826224 396.30183,123.951132 L396.30183,126.874481 Z M387.170877,124.131586 C387.170877,118.30892 386.070121,113.845745 383.868576,110.741928 C381.667031,107.63811 378.545215,106.086224 374.503033,106.086224 C370.557095,106.086224 367.471369,107.632095 365.245763,110.723882 C363.020157,113.81567 361.883311,118.188619 361.83519,123.84286 L361.83519,126.874481 C361.83519,132.649025 362.960006,137.1122 365.209672,140.264139 C367.459338,143.416078 370.581155,144.992024 374.575215,144.992024 C378.617396,144.992024 381.727182,143.452168 383.904667,140.372411 C386.082151,137.292654 387.170877,132.793389 387.170877,126.874481 L387.170877,124.131586 Z" id="Empty-O" stroke="#FF9E80" stroke-width="2" fill="#FFFFFF" transform="translate(374.503033, 125.503033) rotate(405.000000) translate(-374.503033, -125.503033) "></path>
            <path d="M557.30183,597.874481 C557.30183,603.02345 556.411601,607.54076 554.631117,611.426547 C552.850632,615.312335 550.306262,618.295805 546.997929,620.377047 C543.689596,622.458289 539.882063,623.498894 535.575215,623.498894 C531.316488,623.498894 527.520985,622.458289 524.188592,620.377047 C520.856198,618.295805 518.281752,615.33038 516.465177,611.480683 C514.648601,607.630987 513.728297,603.191873 513.704237,598.163207 L513.704237,595.203767 C513.704237,590.078859 514.612511,585.555534 516.429086,581.633655 C518.245662,577.711777 520.808077,574.710262 524.11641,572.62902 C527.424743,570.547778 531.220246,569.507172 535.503033,569.507172 C539.785821,569.507172 543.581324,570.535748 546.889657,572.592929 C550.197989,574.650111 552.75439,577.60952 554.558935,581.471247 C556.36348,585.332974 557.27777,589.826224 557.30183,594.951132 L557.30183,597.874481 Z M548.170877,595.131586 C548.170877,589.30892 547.070121,584.845745 544.868576,581.741928 C542.667031,578.63811 539.545215,577.086224 535.503033,577.086224 C531.557095,577.086224 528.471369,578.632095 526.245763,581.723882 C524.020157,584.81567 522.883311,589.188619 522.83519,594.84286 L522.83519,597.874481 C522.83519,603.649025 523.960006,608.1122 526.209672,611.264139 C528.459338,614.416078 531.581155,615.992024 535.575215,615.992024 C539.617396,615.992024 542.727182,614.452168 544.904667,611.372411 C547.082151,608.292654 548.170877,603.793389 548.170877,597.874481 L548.170877,595.131586 Z" id="Solid-O" fill="#FF9E80" transform="translate(535.503033, 596.503033) rotate(405.000000) translate(-535.503033, -596.503033) "></path>
            <polygon id="Empty-O" stroke="#FF9E80" stroke-width="2" fill="#FFFFFF" transform="translate(153.154801, 435.258926) rotate(676.000000) translate(-153.154801, -435.258926) " points="153.154801 428.157363 163.912613 409.665176 174.178238 409.665176 158.709488 435.047988 174.529801 460.852676 164.158707 460.852676 153.154801 442.079238 142.115738 460.852676 131.779801 460.852676 147.63527 435.047988 132.131363 409.665176 142.396988 409.665176"></polygon>
            <polygon id="Solid-X" fill="#FF9E80" transform="translate(611.154801, 291.258926) rotate(676.000000) translate(-611.154801, -291.258926) " points="611.154801 284.157363 621.912613 265.665176 632.178238 265.665176 616.709488 291.047988 632.529801 316.852676 622.158707 316.852676 611.154801 298.079238 600.115738 316.852676 589.779801 316.852676 605.63527 291.047988 590.131363 265.665176 600.396988 265.665176"></polygon>
            <path d="M443.548797,261.288747 C443.548797,266.437716 442.658568,270.955026 440.878083,274.840814 C439.097599,278.726601 436.553228,281.710071 433.244895,283.791313 C429.936562,285.872555 426.129029,286.91316 421.822181,286.91316 C417.563455,286.91316 413.767952,285.872555 410.435558,283.791313 C407.103165,281.710071 404.528719,278.744646 402.712144,274.89495 C400.895568,271.045253 399.975264,266.606139 399.951203,261.577473 L399.951203,258.618033 C399.951203,253.493125 400.859477,248.9698 402.676053,245.047922 C404.492628,241.126043 407.055044,238.124528 410.363377,236.043286 C413.67171,233.962044 417.467213,232.921439 421.75,232.921439 C426.032787,232.921439 429.82829,233.950014 433.136623,236.007195 C436.444956,238.064377 439.001357,241.023787 440.805902,244.885513 C442.610447,248.74724 443.524736,253.24049 443.548797,258.365398 L443.548797,261.288747 Z M434.417844,258.545852 C434.417844,252.723186 433.317088,248.260011 431.115543,245.156194 C428.913998,242.052376 425.792181,240.50049 421.75,240.50049 C417.804061,240.50049 414.718335,242.046361 412.49273,245.138148 C410.267124,248.229936 409.130277,252.602885 409.082156,258.257126 L409.082156,261.288747 C409.082156,267.063292 410.206972,271.526466 412.456639,274.678405 C414.706305,277.830344 417.828121,279.40629 421.822181,279.40629 C425.864363,279.40629 428.974149,277.866435 431.151633,274.786677 C433.329118,271.70692 434.417844,267.207655 434.417844,261.288747 L434.417844,258.545852 Z" id="Empty-O" stroke="#FF9E80" stroke-width="2" fill="#FFFFFF" transform="translate(421.750000, 259.917300) rotate(676.000000) translate(-421.750000, -259.917300) "></path>
            <path d="M197.23244,589.933361 C197.23244,595.08233 196.342211,599.599641 194.561726,603.485428 C192.781242,607.371215 190.236871,610.354685 186.928538,612.435927 C183.620205,614.517169 179.812672,615.557775 175.505824,615.557775 C171.247098,615.557775 167.451595,614.517169 164.119201,612.435927 C160.786808,610.354685 158.212362,607.38926 156.395786,603.539564 C154.579211,599.689868 153.658907,595.250753 153.634846,590.222087 L153.634846,587.262648 C153.634846,582.13774 154.54312,577.614414 156.359696,573.692536 C158.176271,569.770658 160.738687,566.769143 164.04702,564.6879 C167.355353,562.606658 171.150856,561.566053 175.433643,561.566053 C179.71643,561.566053 183.511933,562.594628 186.820266,564.65181 C190.128599,566.708991 192.685,569.668401 194.489545,573.530128 C196.29409,577.391854 197.208379,581.885104 197.23244,587.010013 L197.23244,589.933361 Z M188.101487,587.190466 C188.101487,581.367801 187.000731,576.904626 184.799186,573.800808 C182.59764,570.69699 179.475824,569.145105 175.433643,569.145105 C171.487704,569.145105 168.401978,570.690975 166.176372,573.782763 C163.950767,576.87455 162.81392,581.247499 162.765799,586.901741 L162.765799,589.933361 C162.765799,595.707906 163.890615,600.171081 166.140282,603.32302 C168.389948,606.474959 171.511764,608.050904 175.505824,608.050904 C179.548006,608.050904 182.657792,606.511049 184.835276,603.431292 C187.012761,600.351535 188.101487,595.85227 188.101487,589.933361 L188.101487,587.190466 Z" id="Solid-O" fill="#FF9E80" transform="translate(175.433643, 588.561914) rotate(676.000000) translate(-175.433643, -588.561914) "></path>
            <polygon id="Solid-X" fill="#FF9E80" points="266.5 142.225275 270.777961 135 274.860197 135 268.708882 144.917582 275 155 270.875822 155 266.5 147.664835 262.110197 155 258 155 264.305099 144.917582 258.139803 135 262.222039 135"></polygon>
            <path d="M191,347.558824 C191,349.656873 190.652873,351.497541 189.958609,353.080882 C189.264345,354.664224 188.272219,355.879898 186.982202,356.727941 C185.692184,357.575985 184.207514,358 182.528146,358 C180.867541,358 179.387562,357.575985 178.088162,356.727941 C176.788763,355.879898 175.78491,354.671576 175.076573,353.102941 C174.368236,351.534306 174.009382,349.7255 174,347.676471 L174,346.470588 C174,344.382342 174.354163,342.539224 175.0625,340.941176 C175.770837,339.343129 176.769999,338.120102 178.060017,337.272059 C179.350034,336.424015 180.830014,336 182.5,336 C184.169986,336 185.649966,336.419113 186.939983,337.257353 C188.230001,338.095592 189.226818,339.301463 189.930464,340.875 C190.634109,342.448537 190.990618,344.279401 191,346.367647 L191,347.558824 Z M187.43957,346.441176 C187.43957,344.068616 187.010352,342.250006 186.151904,340.985294 C185.293456,339.720582 184.076167,339.088235 182.5,339.088235 C180.961361,339.088235 179.758145,339.718131 178.890315,340.977941 C178.022485,342.237751 177.579194,344.019596 177.56043,346.323529 L177.56043,347.558824 C177.56043,349.911776 177.99903,351.730386 178.876242,353.014706 C179.753454,354.299026 180.970743,354.941176 182.528146,354.941176 C184.104313,354.941176 185.316911,354.313732 186.165977,353.058824 C187.015043,351.803915 187.43957,349.9706 187.43957,347.558824 L187.43957,346.441176 Z" id="Solid-O" fill="#FF9E80"></path>
            <polygon id="Solid-X" fill="#FF9E80" transform="translate(490.072902, 276.955534) rotate(344.000000) translate(-490.072902, -276.955534) " points="490.072902 274.180809 494.350863 266.955534 498.433099 266.955534 492.281784 276.873117 498.572902 286.955534 494.448724 286.955534 490.072902 279.62037 485.683099 286.955534 481.572902 286.955534 487.878001 276.873117 481.712705 266.955534 485.794942 266.955534"></polygon>
            <polygon id="Solid-X" fill="#FF9E80" transform="translate(410.023461, 501.000000) rotate(386.000000) translate(-410.023461, -501.000000) " points="410.023461 498.225275 414.301421 491 418.383658 491 412.232342 500.917582 418.523461 511 414.399283 511 410.023461 503.664835 405.633658 511 401.523461 511 407.82856 500.917582 401.663263 491 405.7455 491"></polygon>
            <path d="M591.961832,131.171713 C591.961832,133.269762 591.614705,135.11043 590.920441,136.693772 C590.226177,138.277113 589.234051,139.492787 587.944034,140.34083 C586.654017,141.188874 585.169346,141.612889 583.489978,141.612889 C581.829373,141.612889 580.349394,141.188874 579.049994,140.34083 C577.750595,139.492787 576.746742,138.284466 576.038405,136.71583 C575.330068,135.147195 574.971214,133.33839 574.961832,131.28936 L574.961832,130.083477 C574.961832,127.995232 575.315995,126.152113 576.024332,124.554066 C576.732669,122.956019 577.731831,121.732992 579.021849,120.884948 C580.311866,120.036905 581.791846,119.612889 583.461832,119.612889 C585.131818,119.612889 586.611798,120.032003 587.901815,120.870242 C589.191833,121.708482 590.18865,122.914352 590.892296,124.487889 C591.595941,126.061427 591.95245,127.892291 591.961832,129.980536 L591.961832,131.171713 Z M588.401402,130.054066 C588.401402,127.681505 587.972184,125.862896 587.113736,124.598183 C586.255288,123.333471 585.037999,122.701125 583.461832,122.701125 C581.923193,122.701125 580.719977,123.33102 579.852147,124.59083 C578.984317,125.850641 578.541026,127.632486 578.522262,129.936419 L578.522262,131.171713 C578.522262,133.524666 578.960862,135.343275 579.838074,136.627595 C580.715286,137.911915 581.932575,138.554066 583.489978,138.554066 C585.066145,138.554066 586.278743,137.926621 587.127809,136.671713 C587.976875,135.416805 588.401402,133.58349 588.401402,131.171713 L588.401402,130.054066 Z" id="Solid-O" fill="#FF9E80" transform="translate(583.461832, 130.612889) rotate(386.000000) translate(-583.461832, -130.612889) "></path>
            <polygon id="Empty-O" stroke="#FF9E80" stroke-width="0.8" fill="#FFFFFF" transform="translate(434.531656, 72.655785) rotate(373.000000) translate(-434.531656, -72.655785) " points="434.531656 69.8810593 438.809617 62.6557846 442.891853 62.6557846 436.740538 72.573367 443.031656 82.6557846 438.907478 82.6557846 434.531656 75.3206198 430.141853 82.6557846 426.031656 82.6557846 432.336755 72.573367 426.171459 62.6557846 430.253696 62.6557846"></polygon>
            <path d="M692.256607,259.188978 C692.256607,261.287028 691.90948,263.127696 691.215216,264.711037 C690.520952,266.294378 689.528827,267.510052 688.238809,268.358096 C686.948792,269.206139 685.464121,269.630155 683.784753,269.630155 C682.124149,269.630155 680.644169,269.206139 679.344769,268.358096 C678.04537,267.510052 677.041517,266.301731 676.33318,264.733096 C675.624843,263.164461 675.265989,261.355655 675.256607,259.306625 L675.256607,258.100743 C675.256607,256.012497 675.61077,254.169378 676.319107,252.571331 C677.027444,250.973284 678.026606,249.750257 679.316624,248.902213 C680.606641,248.05417 682.086621,247.630155 683.756607,247.630155 C685.426593,247.630155 686.906573,248.049268 688.196591,248.887508 C689.486608,249.725747 690.483425,250.931617 691.187071,252.505155 C691.890717,254.078692 692.247225,255.909556 692.256607,257.997802 L692.256607,259.188978 Z M688.696177,258.071331 C688.696177,255.69877 688.266959,253.880161 687.408511,252.615449 C686.550063,251.350737 685.332774,250.71839 683.756607,250.71839 C682.217968,250.71839 681.014752,251.348286 680.146922,252.608096 C679.279092,253.867906 678.835802,255.649751 678.817038,257.953684 L678.817038,259.188978 C678.817038,261.541931 679.255637,263.36054 680.132849,264.644861 C681.010061,265.929181 682.22735,266.571331 683.784753,266.571331 C685.36092,266.571331 686.573518,265.943886 687.422584,264.688978 C688.27165,263.43407 688.696177,261.600755 688.696177,259.188978 L688.696177,258.071331 Z" id="Empty-O" stroke="#FF9E80" stroke-width="0.8" fill="#FFFFFF" transform="translate(683.756607, 258.630155) rotate(373.000000) translate(-683.756607, -258.630155) "></path>
            <polygon id="Empty-O" stroke="#FF9E80" stroke-width="0.8" fill="#FFFFFF" transform="translate(591.081475, 389.038331) rotate(405.000000) translate(-591.081475, -389.038331) " points="591.081475 386.263605 595.359436 379.038331 599.441673 379.038331 593.290357 388.955913 599.581475 399.038331 595.457298 399.038331 591.081475 391.703166 586.691673 399.038331 582.581475 399.038331 588.886574 388.955913 582.721278 379.038331 586.803515 379.038331"></polygon>
            <path d="M578.288582,548.347406 C578.288582,550.445455 577.941455,552.286123 577.247192,553.869465 C576.552928,555.452806 575.560802,556.66848 574.270784,557.516523 C572.980767,558.364567 571.496096,558.788582 569.816728,558.788582 C568.156124,558.788582 566.676144,558.364567 565.376744,557.516523 C564.077345,556.66848 563.073492,555.460159 562.365155,553.891523 C561.656818,552.322888 561.297964,550.514083 561.288582,548.465053 L561.288582,547.25917 C561.288582,545.170925 561.642745,543.327806 562.351082,541.729759 C563.059419,540.131711 564.058581,538.908685 565.348599,538.060641 C566.638616,537.212598 568.118596,536.788582 569.788582,536.788582 C571.458569,536.788582 572.938548,537.207696 574.228566,538.045935 C575.518583,538.884175 576.5154,540.090045 577.219046,541.663582 C577.922692,543.23712 578.2792,545.067984 578.288582,547.156229 L578.288582,548.347406 Z M574.728152,547.229759 C574.728152,544.857198 574.298934,543.038589 573.440486,541.773876 C572.582038,540.509164 571.364749,539.876818 569.788582,539.876818 C568.249943,539.876818 567.046727,540.506713 566.178897,541.766523 C565.311067,543.026334 564.867777,544.808179 564.849013,547.112112 L564.849013,548.347406 C564.849013,550.700359 565.287612,552.518968 566.164824,553.803288 C567.042036,555.087608 568.259325,555.729759 569.816728,555.729759 C571.392895,555.729759 572.605493,555.102314 573.454559,553.847406 C574.303625,552.592498 574.728152,550.759183 574.728152,548.347406 L574.728152,547.229759 Z" id="Empty-O" stroke="#FF9E80" stroke-width="0.8" fill="#FFFFFF" transform="translate(569.788582, 547.788582) rotate(405.000000) translate(-569.788582, -547.788582) "></path>
            <polygon id="Empty-O" stroke="#FF9E80" stroke-width="0.8" fill="#FFFFFF" transform="translate(352.487807, 259.097994) rotate(676.000000) translate(-352.487807, -259.097994) " points="352.487807 256.323269 356.765768 249.097994 360.848005 249.097994 354.696689 259.015577 360.987807 269.097994 356.86363 269.097994 352.487807 261.762829 348.098005 269.097994 343.987807 269.097994 350.292906 259.015577 344.12761 249.097994 348.209847 249.097994"></polygon>
            <path d="M208.25563,498.376157 C208.25563,500.474207 207.908504,502.314875 207.21424,503.898216 C206.519976,505.481558 205.52785,506.697232 204.237832,507.545275 C202.947815,508.393319 201.463144,508.817334 199.783776,508.817334 C198.123172,508.817334 196.643192,508.393319 195.343793,507.545275 C194.044393,506.697232 193.04054,505.48891 192.332203,503.920275 C191.623866,502.35164 191.265012,500.542834 191.25563,498.493805 L191.25563,497.287922 C191.25563,495.199676 191.609794,493.356558 192.31813,491.75851 C193.026467,490.160463 194.025629,488.937436 195.315647,488.089393 C196.605664,487.241349 198.085644,486.817334 199.75563,486.817334 C201.425617,486.817334 202.905596,487.236447 204.195614,488.074687 C205.485631,488.912926 206.482448,490.118797 207.186094,491.692334 C207.88974,493.265871 208.246248,495.096735 208.25563,497.184981 L208.25563,498.376157 Z M204.6952,497.25851 C204.6952,494.88595 204.265982,493.06734 203.407534,491.802628 C202.549086,490.537916 201.331797,489.905569 199.75563,489.905569 C198.216991,489.905569 197.013775,490.535465 196.145945,491.795275 C195.278115,493.055085 194.834825,494.83693 194.816061,497.140863 L194.816061,498.376157 C194.816061,500.72911 195.25466,502.54772 196.131872,503.83204 C197.009084,505.11636 198.226373,505.75851 199.783776,505.75851 C201.359943,505.75851 202.572541,505.131066 203.421607,503.876157 C204.270673,502.621249 204.6952,500.787934 204.6952,498.376157 L204.6952,497.25851 Z" id="Empty-O" stroke="#FF9E80" stroke-width="0.8" fill="#FFFFFF" transform="translate(199.755630, 497.817334) rotate(676.000000) translate(-199.755630, -497.817334) "></path>
            <path d="M318.25563,603.367879 C318.25563,605.465929 317.908504,607.306597 317.21424,608.889938 C316.519976,610.473279 315.52785,611.688954 314.237832,612.536997 C312.947815,613.38504 311.463144,613.809056 309.783776,613.809056 C308.123172,613.809056 306.643192,613.38504 305.343793,612.536997 C304.044393,611.688954 303.04054,610.480632 302.332203,608.911997 C301.623866,607.343362 301.265012,605.534556 301.25563,603.485526 L301.25563,602.279644 C301.25563,600.191398 301.609794,598.348279 302.31813,596.750232 C303.026467,595.152185 304.025629,593.929158 305.315647,593.081115 C306.605664,592.233071 308.085644,591.809056 309.75563,591.809056 C311.425617,591.809056 312.905596,592.228169 314.195614,593.066409 C315.485631,593.904648 316.482448,595.110519 317.186094,596.684056 C317.88974,598.257593 318.246248,600.088457 318.25563,602.176703 L318.25563,603.367879 Z M314.6952,602.250232 C314.6952,599.877671 314.265982,598.059062 313.407534,596.79435 C312.549086,595.529638 311.331797,594.897291 309.75563,594.897291 C308.216991,594.897291 307.013775,595.527187 306.145945,596.786997 C305.278115,598.046807 304.834825,599.828652 304.816061,602.132585 L304.816061,603.367879 C304.816061,605.720832 305.25466,607.539442 306.131872,608.823762 C307.009084,610.108082 308.226373,610.750232 309.783776,610.750232 C311.359943,610.750232 312.572541,610.122788 313.421607,608.867879 C314.270673,607.612971 314.6952,605.779656 314.6952,603.367879 L314.6952,602.250232 Z" id="Solid-O" fill="#FF9E80" transform="translate(309.755630, 602.809056) rotate(676.000000) translate(-309.755630, -602.809056) "></path>
        </g>
    </g>
</svg>